<svg data-v-0dd9719b="" version="1.0" xmlns="http://www.w3.org/2000/svg" xmlns:xlink="http://www.w3.org/1999/xlink" width="100%" height="100%" viewBox="0 0 340.000000 250.000000" preserveAspectRatio="xMidYMid meet" color-interpolation-filters="sRGB" style="margin: auto;"> <rect data-v-0dd9719b="" x="0" y="0" width="100%" height="100%" fill="#fff" fill-opacity="1" class="background"></rect> <rect data-v-0dd9719b="" x="0" y="0" width="100%" height="100%" fill="url(#watermark)" fill-opacity="1" class="watermarklayer"></rect> <g data-v-0dd9719b="" fill="#333" class="icon-text-wrapper icon-svg-group iconsvg" transform="translate(47.55500030517578,95.90374946594238)"><g class="iconsvg-imagesvg" transform="translate(0,1.7377166748046875)"><g><rect fill="#333" fill-opacity="0" stroke-width="2" x="0" y="0" width="60" height="54.71706716519995" class="image-rect"></rect> <svg x="0" y="0" width="60" height="54.71706716519995" filtersec="colorsb9861695886" class="image-svg-svg primary" style="overflow: visible;"><svg xmlns="http://www.w3.org/2000/svg" viewBox="0.007376670837402344 0.017479896545410156 109.63544464111328 99.98246765136719"><g fill-rule="evenodd"><path d="M46.12 21.84c-2.94-8.25-7.27-15.43-1.06-17.59C53.49 1.3 60.41-3 62.64 3.15c3 8.39 7.23 15.37 1.06 17.6L52.39 24.8c-10.91 3.9-8.55 23-5.62 31.19C54.16 76.67 23 87.73 15.59 67.14A16.58 16.58 0 0 1 25.61 46c3.09 0 23.98-14.41 20.51-24.16z" fill="#104e70"></path><path d="M83.51 43C82 51 84.92 71.28 93.82 73c8.39 1.62 17 1.62 15.69 8-1.83 9.17-1.67 16.89-8 15.7-8.37-1.59-16.91-1.65-15.69-8l2.28-11.82c2.18-11.39-15.46-19.05-24-20.7A16.53 16.53 0 0 1 51 36.77C55.1 15.24 87.68 21.51 83.51 43z" fill="#2491eb"></path><path d="M25.67 89.11c-6.16 7.08-10 13.8-14.81 9.58-7-6.13-13.74-9.91-9.57-14.79 4.8-5.62 9.76-14 14.8-9.58l9.08 7.9c8.74 7.57 24.23-3.87 29.9-10.44a16.58 16.58 0 0 1 23.38-1.65c16.57 14.44-5.21 39.37-21.72 25 2.5.04-23.48-14.74-31.06-6.02z" fill="#85c4f5"></path></g></svg></svg> <!----></g></g> <g transform="translate(67,0)"><g data-gra="path-name" fill-rule="" class="tp-name iconsvg-namesvg" transform="translate(0,0)"><g transform="scale(1)"><g><path d="M20.57-37.44L20.57-37.44Q24.96-35.51 24.96-35.16L24.96-35.16Q24.96-34.98 24.61-34.8L24.61-34.8Q24.08-34.63 23.73-34.45L23.73-34.45Q30.59-22.5 43.59-19.16L43.59-19.16 43.59-18.81Q40.25-18.46 39.2-16.88L39.2-16.88Q39.02-16.7 39.02-16.7L39.02-16.7Q27.95-22.15 23.03-33.93L23.03-33.93Q12.3-18.98 1.05-14.06L1.05-14.06 0.7-14.59Q14.06-23.03 20.57-37.44ZM28.48-18.46L30.59-20.74 34.63-17.58 34.45-17.4 13.54-17.4 11.43-17.05 10.55-18.46 28.48-18.46ZM30.94-12.66L30.94-12.66Q34.63-10.02 34.63-9.84L34.63-9.84Q34.63-9.84 33.75-9.14L33.75-9.14Q32.87-8.61 32.87-8.44L32.87-8.44 33.22 4.57Q32.34 5.27 30.06 5.63L30.06 5.63 30.06 1.76 13.71 1.76 13.71 4.57Q12.3 5.63 10.72 5.8L10.72 5.8Q10.72 5.27 10.72 3.52L10.72 3.52Q10.9-3.87 10.9-12.3L10.9-12.3Q11.07-12.3 12.83-11.43L12.83-11.43Q14.59-10.55 14.77-10.55L14.77-10.55 29.18-10.55Q29.36-10.55 30.06-11.6L30.06-11.6Q30.94-12.66 30.94-12.66ZM30.06-9.49L15.29-9.49Q13.54-9.67 13.71-8.09L13.71-8.09 13.71 0.7 30.06 0.7 30.06-9.49ZM60.29-35.16L60.29-35.16Q62.23-33.75 63.46-32.7L63.46-32.7Q63.46-32.7 62.58-31.99L62.58-31.99Q61.88-31.29 61.7-31.11L61.7-31.11Q61.7-18.63 61.88-6.68L61.88-6.68Q62.05 1.05 61.88 0.7L61.88 0.7Q61.17 2.29 58.36 3.52L58.36 3.52Q58.36 3.52 58.36 3.34L58.36 3.34Q57.48 0.53 52.91-0.7L52.91-0.7 53.09-1.23Q53.44-1.23 54.14-1.05L54.14-1.05Q59.41-0.35 59.24-0.88L59.24-0.88Q59.41-1.58 59.24-13.89L59.24-13.89 52.91-13.89Q52.21-2.64 46.41 3.34L46.41 3.34 46.05 2.81Q49.75-2.81 50.27-9.32L50.27-9.32Q50.98-14.94 50.27-34.98L50.27-34.98Q50.98-34.98 53.61-33.4L53.61-33.4 58.71-33.4Q58.89-33.4 59.59-34.28L59.59-34.28Q60.29-35.16 60.29-35.16ZM82.27-34.63L82.27-34.63Q84.2-33.57 85.43-31.99L85.43-31.99Q84.02-30.94 83.85-30.76L83.85-30.76 84.2-17.05Q82.62-16 81.39-15.82L81.39-15.82 81.39-18.11 68.91-18.11 68.91-3.87Q68.03 0.53 73.48-0.18L73.48-0.18Q79.1-0.18 81.04-0.35L81.04-0.35Q83.32-0.18 83.67-1.76L83.67-1.76Q84.38-2.99 84.73-9.49L84.73-9.49 85.43-9.49Q85.08-2.46 87.54-1.23L87.54-1.23Q87.71-1.05 87.71-0.88L87.71-0.88Q86.48 2.29 81.91 2.29L81.91 2.29Q77.87 2.29 72.6 2.29L72.6 2.29Q65.39 2.81 66.45-2.46L66.45-2.46 66.45-34.28Q66.62-34.28 69.61-32.7L69.61-32.7 80.68-32.7Q82.09-34.63 82.27-34.63ZM59.24-23.91L59.24-32.34 54.67-32.34Q52.91-32.7 53.26-31.11L53.26-31.11Q53.26-27.42 53.26-23.91L53.26-23.91 59.24-23.91ZM73.83-18.98L73.83-31.64 70.66-31.64Q68.73-31.99 68.91-30.23L68.91-30.23 68.91-18.98 73.83-18.98ZM81.39-18.98L81.39-31.64 76.29-31.64 76.29-18.98 81.39-18.98ZM59.24-14.94L59.24-22.85 53.26-22.85Q53.26-21.45 53.26-22.32L53.26-22.32Q53.09-16.7 52.91-14.94L52.91-14.94 59.24-14.94ZM110.39-29.18L110.39-37.09Q110.57-37.09 115.31-35.16L115.31-35.16Q115.14-34.98 114.08-34.1L114.08-34.1Q113.38-33.57 113.38-30.59L113.38-30.59Q113.38-29.71 113.38-29.18L113.38-29.18 123.4-29.18 125.68-31.82 129.55-28.3 129.38-28.13 113.38-28.13 113.38-16.35 115.84-16.35Q116.37-17.58 117.25-19.51L117.25-19.51Q119.53-24.43 120.23-27.07L120.23-27.07 124.45-24.96Q124.45-24.79 123.75-24.61L123.75-24.61Q122.7-24.43 122.34-23.91L122.34-23.91Q121.82-23.03 119.88-20.57L119.88-20.57Q118.13-17.93 116.89-16.35L116.89-16.35 125.86-16.35 128.14-18.98 132.36-15.29 132.19-15.29 114.61-15.29Q119-5.1 132.89-2.64L132.89-2.64 132.89-2.11Q129.73-2.11 128.5 0L128.5 0Q128.32 0.35 128.32 0.35L128.32 0.35Q117.77-4.22 113.38-15.12L113.38-15.12 113.38 4.22Q111.62 5.27 109.86 5.45L109.86 5.45Q110.39 0.88 110.39-13.89L110.39-13.89Q103.01-2.81 90.88 2.46L90.88 2.46 90.35 1.93Q101.6-4.22 107.4-15.29L107.4-15.29 95.8-15.29 93.34-14.94 92.11-16.35 110.39-16.35 110.39-28.13 96.86-28.13 94.57-27.77 93.69-29.18 110.39-29.18ZM98.96-26.54L99.32-26.89Q104.24-24.08 105.64-20.92L105.64-20.92Q106.17-19.69 104.77-18.28L104.77-18.28Q103.01-16.7 102.66-18.11L102.66-18.11Q102.66-22.15 98.96-26.54L98.96-26.54ZM142.91-26.37L142.91-37.09 147.3-34.63 145.55-33.05 145.55-26.37 147.3-26.37 149.06-28.83 152.23-25.84Q152.23-25.84 152.23-25.66L152.23-25.66Q152.4-25.31 152.05-25.31L152.05-25.31 145.55-25.31 145.55-17.58 150.64-20.57 151-20.04 145.55-15.64 145.55-0.7Q145.55 2.29 142.21 3.69L142.21 3.69Q141.5 3.87 141.33 3.16L141.33 3.16Q140.8 1.05 137.11 0L137.11 0 137.11-0.53Q143.61 0.53 142.91-1.05L142.91-1.05 142.91-13.89Q138.87-10.72 137.64-10.02L137.64-10.02 135.88-12.66Q136.41-13.01 137.81-13.71L137.81-13.71Q141.86-15.47 142.91-16.17L142.91-16.17 142.91-25.31 139.04-25.31 137.11-24.96 136.41-26.37 142.91-26.37ZM170.86-33.05L172.44-34.8 175.78-31.82Q175.78-31.64 175.25-31.46L175.25-31.46Q173.67-30.94 173.14-30.06L173.14-30.06Q172.79-29.18 171.74-27.07L171.74-27.07Q170.86-25.66 170.51-24.96L170.51-24.96Q174.9-21.27 174.38-20.39L174.38-20.39Q174.38-17.93 172.79-17.93L172.79-17.93Q172.44-17.93 171.39-19.69L171.39-19.69Q170.16-21.97 169.1-23.2L169.1-23.2Q166.99-20.39 161.37-15.82L161.37-15.82 161.02-16.35Q166.46-22.68 167.7-24.79L167.7-24.79Q166.29-26.54 163.13-28.83L163.13-28.83 163.65-29.36Q163.83-29.18 164.18-29L164.18-29Q167.7-27.25 168.57-26.37L168.57-26.37Q170.86-30.76 171.21-31.99L171.21-31.99 166.29-31.99 164.53-31.46 163.48-33.05 170.86-33.05ZM158.03-32.87L159.61-34.63 162.77-31.82 160.84-30.41Q159.79-28.48 158.03-25.14L158.03-25.14Q161.54-21.97 160.49-19.69L160.49-19.69Q160.14-18.28 159.08-18.28L159.08-18.28Q158.73-18.28 158.2-19.86L158.2-19.86Q157.5-22.15 156.8-23.2L156.8-23.2Q153.81-19.16 149.77-16L149.77-16 149.24-16.52Q152.75-20.04 155.57-24.96L155.57-24.96Q153.98-26.89 151.52-29.18L151.52-29.18 152.05-29.71Q153.46-28.48 156.45-26.72L156.45-26.72Q156.45-26.72 158.38-31.82L158.38-31.82 152.58-31.82 150.82-31.64 150.12-32.87 158.03-32.87ZM170.51-14.94L171.91-16.7 175.25-13.89Q173.32-13.18 173.14-12.3L173.14-12.3Q171.04-6.15 169.45-4.04L169.45-4.04Q173.32-0.18 178.59 1.41L178.59 1.41 178.42 1.93Q175.25 1.76 174.02 3.52L174.02 3.52Q173.85 3.34 173.5 3.16L173.5 3.16Q171.39 1.76 168.05-2.11L168.05-2.11Q162.95 3.16 154.69 5.27L154.69 5.27 154.51 4.75Q162.25 1.76 166.64-4.22L166.64-4.22Q164.88-6.86 163.48-13.71L163.48-13.71 162.77-13.71 162.07-14.94 170.51-14.94ZM157.32-15.12L158.73-16.7 161.89-14.41Q160.49-13.71 159.96-12.48L159.96-12.48Q158.55-9.49 156.97-6.86L156.97-6.86Q157.32-6.5 158.03-5.8L158.03-5.8Q160.14-3.69 160.14-2.81L160.14-2.81Q160.31-0.35 158.73 0.18L158.73 0.18Q158.2 0.18 157.5-1.41L157.5-1.41Q156.62-3.87 155.57-5.1L155.57-5.1Q151.35 0.88 145.72 3.87L145.72 3.87 145.37 3.34Q150.12 0 154.51-6.68L154.51-6.68Q154.34-6.86 153.98-7.21L153.98-7.21Q152.23-9.49 150.12-11.6L150.12-11.6 150.82-11.95Q153.81-9.84 155.39-8.61L155.39-8.61Q156.8-11.25 157.5-14.06L157.5-14.06 152.05-14.06 150.47-13.71 149.59-15.12 157.32-15.12ZM170.68-13.89L170.68-13.89 164.53-13.89Q165.76-8.79 167.87-5.8L167.87-5.8Q169.1-8.09 170.68-13.89Z" transform="translate(-0.699999988079071, 37.439998626708984)"></path></g> <!----> <!----> <!----> <!----> <!----> <!----> <!----></g></g> <g data-gra="path-slogan" fill-rule="" class="tp-slogan iconsvg-slogansvg" fill="#333" transform="translate(48.11499786376953,49.23999786376953)"><!----> <!----> <g transform="scale(1, 1)"><g transform="scale(1)"><path d="M2.06-5.06L6.56-5.06L6.56-8.58L7.73-8.58L7.73 0L6.56 0L6.56-3.98L2.06-3.98L2.06 0L0.89 0L0.89-8.58L2.06-8.58L2.06-5.06ZM10.83-1.03L15.98-1.03L15.98 0L9.66 0L9.66-8.58L15.89-8.58L15.89-7.59L10.83-7.59L10.83-4.92L15.52-4.92L15.52-3.89L10.83-3.89L10.83-1.03ZM23.02-3.89L18.80-3.89L18.80 0L17.63 0L17.63-8.58L23.58-8.58L23.58-7.59L18.80-7.59L18.80-4.92L23.02-4.92L23.02-3.89ZM26.06-1.03L31.22-1.03L31.22 0L24.89 0L24.89-8.58L31.13-8.58L31.13-7.59L26.06-7.59L26.06-4.92L30.75-4.92L30.75-3.89L26.06-3.89L26.06-1.03ZM32.91-8.58L34.08-8.58L34.08 0L32.91 0L32.91-8.58ZM39.38-8.58L40.55-8.58L40.55-1.03L44.91-1.03L44.91 0L39.38 0L39.38-8.58ZM51.70 0L50.86-2.48L47.39-2.48L46.50 0L45.33 0L48.56-8.58L49.88-8.58L52.97 0L51.70 0ZM49.13-7.31L47.77-3.52L50.44-3.52L49.17-7.31L49.13-7.31ZM54.19-8.58L55.36-8.58L55.36 0L54.19 0L54.19-8.58ZM60.84 0L57.38 0L57.38-8.58L60.89-8.58Q64.36-8.39 64.50-4.41L64.50-4.41Q64.31-0.09 60.84 0L60.84 0ZM60.70-7.64L58.55-7.64L58.55-0.98L60.80-0.98Q63.23-1.13 63.33-4.31L63.33-4.31Q63.28-7.55 60.70-7.64L60.70-7.64ZM71.63-3.19L71.63-8.58L72.80-8.58L72.80-3.05Q72.66 0.05 69.28 0.14L69.28 0.14Q66.14 0.05 66-2.86L66-2.86L66-8.58L67.17-8.58L67.17-3.19Q67.22-0.84 69.33-0.80L69.33-0.80Q71.63-0.84 71.63-3.19L71.63-3.19ZM81.38-4.27L81.38-4.27Q81.19-7.64 78.38-7.83L78.38-7.83Q75.52-7.69 75.38-4.27L75.38-4.27Q75.52-0.94 78.38-0.80L78.38-0.80Q81.19-0.98 81.38-4.27ZM82.55-4.27L82.55-4.27Q82.27 0 78.38 0.14L78.38 0.14Q74.44 0 74.16-4.27L74.16-4.27Q74.39-8.72 78.38-8.81L78.38-8.81Q82.27-8.67 82.55-4.27Z" transform="translate(-0.890625, 8.8125)"></path></g></g></g></g></g><defs v-gra="od"></defs></svg>